<svg width="100" height="23" viewBox="0 0 170 23" fill="none" xmlns="http://www.w3.org/2000/svg">
<path d="M0.81 22L5.01 0.399999H10.32L6.12 22H0.81ZM4.5 22L5.4 17.38H16.2L15.33 22H4.5ZM6.3 13.36L7.11 8.98H16.08L15.27 13.36H6.3ZM7.8 5.02L8.7 0.399999H19.26L18.42 5.02H7.8ZM25.6305 22.36C23.2305 22.36 21.4005 21.99 20.1405 21.25C18.9005 20.51 18.2805 19.26 18.2805 17.5C18.2805 16.18 18.6305 15.12 19.3305 14.32C20.0305 13.5 20.9705 12.9 22.1505 12.52C23.3505 12.14 24.6905 11.95 26.1705 11.95C26.8705 11.95 27.5105 12.01 28.0905 12.13C28.6905 12.23 29.1305 12.33 29.4105 12.43L28.9005 15.58C28.5805 15.42 28.2305 15.3 27.8505 15.22C27.4705 15.12 26.9805 15.07 26.3805 15.07C25.4005 15.07 24.6105 15.24 24.0105 15.58C23.4305 15.92 23.1405 16.45 23.1405 17.17C23.1405 17.83 23.3805 18.29 23.8605 18.55C24.3605 18.79 25.0205 18.91 25.8405 18.91C26.2805 18.91 26.7605 18.87 27.2805 18.79C27.8005 18.71 28.2405 18.58 28.6005 18.4L28.5405 19.75C28.3205 19.47 28.1805 19.11 28.1205 18.67C28.0805 18.21 28.0805 17.74 28.1205 17.26C28.1805 16.76 28.2505 16.29 28.3305 15.85L28.9305 12.61C29.2705 11.27 29.1605 10.35 28.6005 9.85C28.0405 9.33 27.1005 9.07 25.7805 9.07C24.8805 9.07 24.0405 9.15 23.2605 9.31C22.5005 9.45 21.8605 9.63 21.3405 9.85H20.9805L21.7605 5.83C22.5205 5.61 23.3305 5.44 24.1905 5.32C25.0505 5.2 25.9405 5.14 26.8605 5.14C28.7405 5.14 30.2705 5.41 31.4505 5.95C32.6505 6.47 33.4705 7.3 33.9105 8.44C34.3705 9.56 34.4205 11.04 34.0605 12.88L33.4305 16.18C33.2905 16.96 33.1405 17.78 32.9805 18.64C32.8405 19.5 32.7905 20.32 32.8305 21.1L32.6205 21.34C31.5205 21.66 30.4005 21.91 29.2605 22.09C28.1205 22.27 26.9105 22.36 25.6305 22.36ZM43.2462 22.36C40.8462 22.36 39.0162 21.99 37.7562 21.25C36.5162 20.51 35.8962 19.26 35.8962 17.5C35.8962 16.18 36.2462 15.12 36.9462 14.32C37.6462 13.5 38.5862 12.9 39.7662 12.52C40.9662 12.14 42.3062 11.95 43.7862 11.95C44.4862 11.95 45.1262 12.01 45.7062 12.13C46.3062 12.23 46.7462 12.33 47.0262 12.43L46.5162 15.58C46.1962 15.42 45.8462 15.3 45.4662 15.22C45.0862 15.12 44.5962 15.07 43.9962 15.07C43.0162 15.07 42.2262 15.24 41.6262 15.58C41.0462 15.92 40.7562 16.45 40.7562 17.17C40.7562 17.83 40.9962 18.29 41.4762 18.55C41.9762 18.79 42.6362 18.91 43.4562 18.91C43.8962 18.91 44.3762 18.87 44.8962 18.79C45.4162 18.71 45.8562 18.58 46.2162 18.4L46.1562 19.75C45.9362 19.47 45.7962 19.11 45.7362 18.67C45.6962 18.21 45.6962 17.74 45.7362 17.26C45.7962 16.76 45.8662 16.29 45.9462 15.85L46.5462 12.61C46.8862 11.27 46.7762 10.35 46.2162 9.85C45.6562 9.33 44.7162 9.07 43.3962 9.07C42.4962 9.07 41.6562 9.15 40.8762 9.31C40.1162 9.45 39.4762 9.63 38.9562 9.85H38.5962L39.3762 5.83C40.1362 5.61 40.9462 5.44 41.8062 5.32C42.6662 5.2 43.5562 5.14 44.4762 5.14C46.3562 5.14 47.8862 5.41 49.0662 5.95C50.2662 6.47 51.0862 7.3 51.5262 8.44C51.9862 9.56 52.0362 11.04 51.6762 12.88L51.0462 16.18C50.9062 16.96 50.7562 17.78 50.5962 18.64C50.4562 19.5 50.4062 20.32 50.4462 21.1L50.2362 21.34C49.1362 21.66 48.0162 21.91 46.8762 22.09C45.7362 22.27 44.5262 22.36 43.2462 22.36ZM60.8618 22.36C58.4618 22.36 56.6318 21.99 55.3718 21.25C54.1318 20.51 53.5118 19.26 53.5118 17.5C53.5118 16.18 53.8618 15.12 54.5618 14.32C55.2618 13.5 56.2018 12.9 57.3818 12.52C58.5818 12.14 59.9218 11.95 61.4018 11.95C62.1018 11.95 62.7418 12.01 63.3218 12.13C63.9218 12.23 64.3618 12.33 64.6418 12.43L64.1318 15.58C63.8118 15.42 63.4618 15.3 63.0818 15.22C62.7018 15.12 62.2118 15.07 61.6118 15.07C60.6318 15.07 59.8418 15.24 59.2418 15.58C58.6618 15.92 58.3718 16.45 58.3718 17.17C58.3718 17.83 58.6118 18.29 59.0918 18.55C59.5918 18.79 60.2518 18.91 61.0718 18.91C61.5118 18.91 61.9918 18.87 62.5118 18.79C63.0318 18.71 63.4718 18.58 63.8318 18.4L63.7718 19.75C63.5518 19.47 63.4118 19.11 63.3518 18.67C63.3118 18.21 63.3118 17.74 63.3518 17.26C63.4118 16.76 63.4818 16.29 63.5618 15.85L64.1618 12.61C64.5018 11.27 64.3918 10.35 63.8318 9.85C63.2718 9.33 62.3318 9.07 61.0118 9.07C60.1118 9.07 59.2718 9.15 58.4918 9.31C57.7318 9.45 57.0918 9.63 56.5718 9.85H56.2118L56.9918 5.83C57.7518 5.61 58.5618 5.44 59.4218 5.32C60.2818 5.2 61.1718 5.14 62.0918 5.14C63.9718 5.14 65.5018 5.41 66.6818 5.95C67.8818 6.47 68.7018 7.3 69.1418 8.44C69.6018 9.56 69.6518 11.04 69.2918 12.88L68.6618 16.18C68.5218 16.96 68.3718 17.78 68.2118 18.64C68.0718 19.5 68.0218 20.32 68.0618 21.1L67.8518 21.34C66.7518 21.66 65.6318 21.91 64.4918 22.09C63.3518 22.27 62.1418 22.36 60.8618 22.36ZM78.4774 22.36C76.0774 22.36 74.2474 21.99 72.9874 21.25C71.7474 20.51 71.1274 19.26 71.1274 17.5C71.1274 16.18 71.4774 15.12 72.1774 14.32C72.8774 13.5 73.8174 12.9 74.9974 12.52C76.1974 12.14 77.5374 11.95 79.0174 11.95C79.7174 11.95 80.3574 12.01 80.9374 12.13C81.5374 12.23 81.9774 12.33 82.2574 12.43L81.7474 15.58C81.4274 15.42 81.0774 15.3 80.6974 15.22C80.3174 15.12 79.8274 15.07 79.2274 15.07C78.2474 15.07 77.4574 15.24 76.8574 15.58C76.2774 15.92 75.9874 16.45 75.9874 17.17C75.9874 17.83 76.2274 18.29 76.7074 18.55C77.2074 18.79 77.8674 18.91 78.6874 18.91C79.1274 18.91 79.6074 18.87 80.1274 18.79C80.6474 18.71 81.0874 18.58 81.4474 18.4L81.3874 19.75C81.1674 19.47 81.0274 19.11 80.9674 18.67C80.9274 18.21 80.9274 17.74 80.9674 17.26C81.0274 16.76 81.0974 16.29 81.1774 15.85L81.7774 12.61C82.1174 11.27 82.0074 10.35 81.4474 9.85C80.8874 9.33 79.9474 9.07 78.6274 9.07C77.7274 9.07 76.8874 9.15 76.1074 9.31C75.3474 9.45 74.7074 9.63 74.1874 9.85H73.8274L74.6074 5.83C75.3674 5.61 76.1774 5.44 77.0374 5.32C77.8974 5.2 78.7874 5.14 79.7074 5.14C81.5874 5.14 83.1174 5.41 84.2974 5.95C85.4974 6.47 86.3174 7.3 86.7574 8.44C87.2174 9.56 87.2674 11.04 86.9074 12.88L86.2774 16.18C86.1374 16.96 85.9874 17.78 85.8274 18.64C85.6874 19.5 85.6374 20.32 85.6774 21.1L85.4674 21.34C84.3674 21.66 83.2474 21.91 82.1074 22.09C80.9674 22.27 79.7574 22.36 78.4774 22.36ZM96.093 22.36C93.693 22.36 91.863 21.99 90.603 21.25C89.363 20.51 88.743 19.26 88.743 17.5C88.743 16.18 89.093 15.12 89.793 14.32C90.493 13.5 91.433 12.9 92.613 12.52C93.813 12.14 95.153 11.95 96.633 11.95C97.333 11.95 97.973 12.01 98.553 12.13C99.153 12.23 99.593 12.33 99.873 12.43L99.363 15.58C99.043 15.42 98.693 15.3 98.313 15.22C97.933 15.12 97.443 15.07 96.843 15.07C95.863 15.07 95.073 15.24 94.473 15.58C93.893 15.92 93.603 16.45 93.603 17.17C93.603 17.83 93.843 18.29 94.323 18.55C94.823 18.79 95.483 18.91 96.303 18.91C96.743 18.91 97.223 18.87 97.743 18.79C98.263 18.71 98.703 18.58 99.063 18.4L99.003 19.75C98.783 19.47 98.643 19.11 98.583 18.67C98.543 18.21 98.543 17.74 98.583 17.26C98.643 16.76 98.713 16.29 98.793 15.85L99.393 12.61C99.733 11.27 99.623 10.35 99.063 9.85C98.503 9.33 97.563 9.07 96.243 9.07C95.343 9.07 94.503 9.15 93.723 9.31C92.963 9.45 92.323 9.63 91.803 9.85H91.443L92.223 5.83C92.983 5.61 93.793 5.44 94.653 5.32C95.513 5.2 96.403 5.14 97.323 5.14C99.203 5.14 100.733 5.41 101.913 5.95C103.113 6.47 103.933 7.3 104.373 8.44C104.833 9.56 104.883 11.04 104.523 12.88L103.893 16.18C103.753 16.96 103.603 17.78 103.443 18.64C103.303 19.5 103.253 20.32 103.293 21.1L103.083 21.34C101.983 21.66 100.863 21.91 99.723 22.09C98.583 22.27 97.373 22.36 96.093 22.36ZM113.709 22.36C111.309 22.36 109.479 21.99 108.219 21.25C106.979 20.51 106.359 19.26 106.359 17.5C106.359 16.18 106.709 15.12 107.409 14.32C108.109 13.5 109.049 12.9 110.229 12.52C111.429 12.14 112.769 11.95 114.249 11.95C114.949 11.95 115.589 12.01 116.169 12.13C116.769 12.23 117.209 12.33 117.489 12.43L116.979 15.58C116.659 15.42 116.309 15.3 115.929 15.22C115.549 15.12 115.059 15.07 114.459 15.07C113.479 15.07 112.689 15.24 112.089 15.58C111.509 15.92 111.219 16.45 111.219 17.17C111.219 17.83 111.459 18.29 111.939 18.55C112.439 18.79 113.099 18.91 113.919 18.91C114.359 18.91 114.839 18.87 115.359 18.79C115.879 18.71 116.319 18.58 116.679 18.4L116.619 19.75C116.399 19.47 116.259 19.11 116.199 18.67C116.159 18.21 116.159 17.74 116.199 17.26C116.259 16.76 116.329 16.29 116.409 15.85L117.009 12.61C117.349 11.27 117.239 10.35 116.679 9.85C116.119 9.33 115.179 9.07 113.859 9.07C112.959 9.07 112.119 9.15 111.339 9.31C110.579 9.45 109.939 9.63 109.419 9.85H109.059L109.839 5.83C110.599 5.61 111.409 5.44 112.269 5.32C113.129 5.2 114.019 5.14 114.939 5.14C116.819 5.14 118.349 5.41 119.529 5.95C120.729 6.47 121.549 7.3 121.989 8.44C122.449 9.56 122.499 11.04 122.139 12.88L121.509 16.18C121.369 16.96 121.219 17.78 121.059 18.64C120.919 19.5 120.869 20.32 120.909 21.1L120.699 21.34C119.599 21.66 118.479 21.91 117.339 22.09C116.199 22.27 114.989 22.36 113.709 22.36ZM131.324 22.36C128.924 22.36 127.094 21.99 125.834 21.25C124.594 20.51 123.974 19.26 123.974 17.5C123.974 16.18 124.324 15.12 125.024 14.32C125.724 13.5 126.664 12.9 127.844 12.52C129.044 12.14 130.384 11.95 131.864 11.95C132.564 11.95 133.204 12.01 133.784 12.13C134.384 12.23 134.824 12.33 135.104 12.43L134.594 15.58C134.274 15.42 133.924 15.3 133.544 15.22C133.164 15.12 132.674 15.07 132.074 15.07C131.094 15.07 130.304 15.24 129.704 15.58C129.124 15.92 128.834 16.45 128.834 17.17C128.834 17.83 129.074 18.29 129.554 18.55C130.054 18.79 130.714 18.91 131.534 18.91C131.974 18.91 132.454 18.87 132.974 18.79C133.494 18.71 133.934 18.58 134.294 18.4L134.234 19.75C134.014 19.47 133.874 19.11 133.814 18.67C133.774 18.21 133.774 17.74 133.814 17.26C133.874 16.76 133.944 16.29 134.024 15.85L134.624 12.61C134.964 11.27 134.854 10.35 134.294 9.85C133.734 9.33 132.794 9.07 131.474 9.07C130.574 9.07 129.734 9.15 128.954 9.31C128.194 9.45 127.554 9.63 127.034 9.85H126.674L127.454 5.83C128.214 5.61 129.024 5.44 129.884 5.32C130.744 5.2 131.634 5.14 132.554 5.14C134.434 5.14 135.964 5.41 137.144 5.95C138.344 6.47 139.164 7.3 139.604 8.44C140.064 9.56 140.114 11.04 139.754 12.88L139.124 16.18C138.984 16.96 138.834 17.78 138.674 18.64C138.534 19.5 138.484 20.32 138.524 21.1L138.314 21.34C137.214 21.66 136.094 21.91 134.954 22.09C133.814 22.27 132.604 22.36 131.324 22.36ZM148.953 22.24C147.073 22.24 145.583 21.83 144.483 21.01C143.383 20.19 142.833 18.88 142.833 17.08C142.833 16.78 142.853 16.47 142.893 16.15C142.933 15.83 142.983 15.5 143.043 15.16L145.683 1.48H150.963L148.293 15.25C148.273 15.41 148.253 15.58 148.233 15.76C148.213 15.92 148.203 16.06 148.203 16.18C148.203 16.74 148.383 17.2 148.743 17.56C149.123 17.9 149.723 18.07 150.543 18.07C151.303 18.07 152.013 17.91 152.673 17.59H153.003L152.223 21.76C151.743 21.9 151.243 22.01 150.723 22.09C150.203 22.19 149.613 22.24 148.953 22.24ZM141.423 9.67L142.233 5.59H154.533L153.723 9.67H141.423ZM154.404 17.17H154.704C155.364 17.53 156.144 17.82 157.044 18.04C157.944 18.24 158.844 18.34 159.744 18.34C160.384 18.34 160.954 18.3 161.454 18.22C161.954 18.14 162.334 18.01 162.594 17.83C162.874 17.65 163.014 17.38 163.014 17.02C163.014 16.56 162.814 16.25 162.414 16.09C162.014 15.91 161.464 15.74 160.764 15.58L159.744 15.34C158.884 15.14 158.114 14.88 157.434 14.56C156.774 14.22 156.254 13.77 155.874 13.21C155.494 12.63 155.304 11.88 155.304 10.96C155.304 9.9 155.604 8.94 156.204 8.08C156.824 7.2 157.764 6.51 159.024 6.01C160.304 5.51 161.944 5.26 163.944 5.26C164.904 5.26 165.834 5.31 166.734 5.41C167.634 5.51 168.464 5.68 169.224 5.92L168.414 10.09H168.084C167.324 9.75 166.574 9.52 165.834 9.4C165.094 9.26 164.354 9.19 163.614 9.19C162.654 9.19 161.894 9.31 161.334 9.55C160.794 9.77 160.524 10.14 160.524 10.66C160.524 10.94 160.614 11.17 160.794 11.35C160.994 11.53 161.264 11.67 161.604 11.77C161.964 11.87 162.364 11.98 162.804 12.1L163.854 12.34C164.654 12.52 165.384 12.78 166.044 13.12C166.724 13.46 167.264 13.93 167.664 14.53C168.084 15.13 168.294 15.89 168.294 16.81C168.294 18.57 167.534 19.92 166.014 20.86C164.514 21.78 162.384 22.24 159.624 22.24C158.544 22.24 157.474 22.17 156.414 22.03C155.374 21.91 154.424 21.7 153.564 21.4L154.404 17.17Z" fill="#48AA6F"/>
</svg>
