<svg width="30" height="30" viewBox="0 0 30 30" fill="none" xmlns="http://www.w3.org/2000/svg">
<path d="M7.14286 0H21.4286V19.5L11.4286 30L9.64286 28.125C9.47619 27.95 9.33905 27.7125 9.23143 27.4125C9.12381 27.1125 9.07048 26.825 9.07143 26.55V26.025L10.6429 19.5H2.85714C2.09524 19.5 1.42857 19.2 0.857143 18.6C0.285714 18 0 17.3 0 16.5V13.5C0 13.325 0.017619 13.1375 0.0528571 12.9375C0.0880952 12.7375 0.141905 12.55 0.214286 12.375L4.5 1.8C4.71429 1.3 5.07143 0.875 5.57143 0.525C6.07143 0.175 6.59524 0 7.14286 0ZM24.2857 19.5V0H30V19.5H24.2857Z" fill="#9A9A9A"/>
</svg>
