<svg width="30" height="30" viewBox="0 0 24 24" fill="none" xmlns="http://www.w3.org/2000/svg">
<path d="M3.074 10.44L3.729 10.913L2.119 12.933L3.984 15.17L3.338 15.67L1.137 12.978L3.074 10.44ZM0.837 15.542H0V8.51196L0.837 8.32996V15.542ZM21.78 11.16C21.343 11.16 21.008 11.323 20.775 11.65C20.541 11.978 20.425 12.457 20.425 13.088C20.425 13.712 20.541 14.184 20.775 14.502C21.008 14.82 21.343 14.98 21.78 14.98C22.222 14.98 22.56 14.82 22.794 14.502C23.027 14.184 23.144 13.712 23.144 13.088C23.144 12.458 23.027 11.978 22.794 11.651C22.56 11.323 22.222 11.16 21.78 11.16ZM21.78 10.487C22.47 10.487 23.014 10.711 23.407 11.16C23.802 11.608 23.999 12.251 23.999 13.088C23.999 13.912 23.803 14.546 23.412 14.988C23.022 15.431 22.477 15.653 21.78 15.653C21.089 15.653 20.546 15.431 20.152 14.989C19.758 14.546 19.56 13.912 19.56 13.088C19.56 12.251 19.759 11.608 20.156 11.16C20.553 10.711 21.095 10.487 21.78 10.487ZM16.246 14.952C16.3664 14.9514 16.4862 14.9363 16.603 14.907C16.7295 14.8761 16.8538 14.8367 16.975 14.789C17.0965 14.7411 17.2131 14.6815 17.323 14.611C17.426 14.5453 17.5231 14.4707 17.613 14.388V13.224H16.743C16.303 13.224 15.981 13.3 15.779 13.452C15.577 13.603 15.476 13.842 15.476 14.17C15.476 14.692 15.732 14.952 16.246 14.952ZM14.676 14.207C14.676 13.703 14.844 13.32 15.18 13.057C15.517 12.792 16.006 12.66 16.649 12.66H17.613V12.342C17.613 11.572 17.273 11.187 16.594 11.187C16.376 11.187 16.147 11.217 15.908 11.278C15.668 11.338 15.448 11.415 15.248 11.505L15.003 10.915C15.252 10.775 15.52 10.667 15.808 10.591C16.095 10.516 16.376 10.477 16.648 10.477C17.825 10.477 18.414 11.105 18.414 12.36V15.543H17.794L17.694 14.998C17.446 15.198 17.181 15.352 16.899 15.462C16.6431 15.5657 16.3701 15.6209 16.094 15.625C15.651 15.625 15.304 15.5 15.053 15.248C14.801 14.996 14.676 14.649 14.676 14.207ZM13.025 10.441L13.68 10.914L12.07 12.934L13.934 15.171L13.289 15.671L11.088 12.979L13.025 10.441ZM10.788 15.543H9.951V8.51296L10.788 8.33096V15.543ZM6.294 14.953C6.409 14.953 6.528 14.937 6.652 14.907C6.77785 14.876 6.90146 14.8366 7.022 14.789C7.14427 14.7413 7.26151 14.6817 7.372 14.611C7.47513 14.5454 7.57218 14.4708 7.662 14.388V13.224H6.792C6.352 13.224 6.03 13.3 5.827 13.452C5.625 13.603 5.524 13.842 5.524 14.17C5.524 14.692 5.781 14.952 6.294 14.952M4.724 14.207C4.724 13.703 4.892 13.32 5.229 13.057C5.565 12.792 6.055 12.66 6.697 12.66H7.662V12.342C7.662 11.572 7.322 11.187 6.642 11.187C6.425 11.187 6.196 11.217 5.956 11.278C5.716 11.338 5.496 11.415 5.296 11.505L5.051 10.915C5.3 10.775 5.568 10.667 5.856 10.591C6.144 10.516 6.425 10.478 6.697 10.478C7.874 10.478 8.462 11.105 8.462 12.36V15.543H7.844L7.744 14.998C7.494 15.198 7.229 15.352 6.948 15.462C6.666 15.571 6.398 15.625 6.142 15.625C5.7 15.625 5.353 15.5 5.102 15.248C4.85 14.996 4.724 14.649 4.724 14.207Z" fill="black"/>
</svg>
