<svg width="30" height="30" viewBox="0 0 30 30" fill="none" xmlns="http://www.w3.org/2000/svg">
<path d="M22.5 26.25H10V10L18.75 1.25L20.3125 2.8125C20.4583 2.95833 20.5783 3.15625 20.6725 3.40625C20.7667 3.65625 20.8133 3.89583 20.8125 4.125V4.5625L19.4375 10H26.25C26.9167 10 27.5 10.25 28 10.75C28.5 11.25 28.75 11.8333 28.75 12.5V15C28.75 15.1458 28.7346 15.3021 28.7037 15.4688C28.6729 15.6354 28.6258 15.7917 28.5625 15.9375L24.8125 24.75C24.625 25.1667 24.3125 25.5208 23.875 25.8125C23.4375 26.1042 22.9792 26.25 22.5 26.25ZM7.5 10V26.25H2.5V10H7.5Z" fill="#9A9A9A"/>
</svg>
