<svg width="30" height="30" viewBox="0 0 30 30" fill="none" xmlns="http://www.w3.org/2000/svg">
<path d="M23.9344 22.9406C24.0035 23.005 24.0589 23.0826 24.0973 23.1688C24.1358 23.2551 24.1564 23.3482 24.1581 23.4426C24.1598 23.537 24.1424 23.6308 24.107 23.7184C24.0717 23.8059 24.019 23.8854 23.9523 23.9522C23.8855 24.019 23.806 24.0716 23.7184 24.107C23.6309 24.1423 23.5371 24.1597 23.4427 24.158C23.3483 24.1564 23.2552 24.1357 23.1689 24.0973C23.0827 24.0588 23.005 24.0034 22.9407 23.9344L15 15.9949L7.05941 23.9344C6.92613 24.0586 6.74983 24.1262 6.56767 24.123C6.38552 24.1197 6.21172 24.0459 6.08289 23.9171C5.95407 23.7883 5.88028 23.6145 5.87706 23.4323C5.87385 23.2502 5.94146 23.0739 6.06566 22.9406L14.0051 15L6.06566 7.05935C5.94146 6.92606 5.87385 6.74977 5.87706 6.56761C5.88028 6.38546 5.95407 6.21166 6.08289 6.08283C6.21172 5.95401 6.38552 5.88022 6.56767 5.877C6.74983 5.87379 6.92613 5.9414 7.05941 6.0656L15 14.0051L22.9407 6.0656C23.074 5.9414 23.2502 5.87379 23.4324 5.877C23.6146 5.88022 23.7884 5.95401 23.9172 6.08283C24.046 6.21166 24.1198 6.38546 24.123 6.56761C24.1262 6.74977 24.0586 6.92606 23.9344 7.05935L15.995 15L23.9344 22.9406Z" fill="black"/>
</svg>
