<svg width="30" height="30" viewBox="0 0 30 30" fill="none" xmlns="http://www.w3.org/2000/svg">
<path d="M13.75 16.25V20C13.75 20.3542 13.87 20.6512 14.11 20.8912C14.35 21.1312 14.6467 21.2508 15 21.25C15.3542 21.25 15.6513 21.13 15.8913 20.89C16.1313 20.65 16.2508 20.3533 16.25 20V16.25H20C20.3542 16.25 20.6512 16.13 20.8912 15.89C21.1312 15.65 21.2508 15.3533 21.25 15C21.25 14.6458 21.13 14.3487 20.89 14.1087C20.65 13.8687 20.3533 13.7492 20 13.75H16.25V10C16.25 9.64583 16.13 9.34875 15.89 9.10875C15.65 8.86875 15.3533 8.74917 15 8.75C14.6458 8.75 14.3487 8.87 14.1087 9.11C13.8687 9.35 13.7492 9.64667 13.75 10V13.75H10C9.64583 13.75 9.34875 13.87 9.10875 14.11C8.86875 14.35 8.74917 14.6467 8.75 15C8.75 15.3542 8.87 15.6513 9.11 15.8913C9.35 16.1313 9.64667 16.2508 10 16.25H13.75ZM15 27.5C13.2708 27.5 11.6458 27.1717 10.125 26.515C8.60417 25.8583 7.28125 24.9679 6.15625 23.8438C5.03125 22.7188 4.14083 21.3958 3.485 19.875C2.82917 18.3542 2.50083 16.7292 2.5 15C2.5 13.2708 2.82833 11.6458 3.485 10.125C4.14167 8.60417 5.03208 7.28125 6.15625 6.15625C7.28125 5.03125 8.60417 4.14083 10.125 3.485C11.6458 2.82917 13.2708 2.50083 15 2.5C16.7292 2.5 18.3542 2.82833 19.875 3.485C21.3958 4.14167 22.7188 5.03208 23.8438 6.15625C24.9688 7.28125 25.8596 8.60417 26.5162 10.125C27.1729 11.6458 27.5008 13.2708 27.5 15C27.5 16.7292 27.1717 18.3542 26.515 19.875C25.8583 21.3958 24.9679 22.7188 23.8438 23.8438C22.7188 24.9688 21.3958 25.8596 19.875 26.5162C18.3542 27.1729 16.7292 27.5008 15 27.5ZM15 25C17.7917 25 20.1562 24.0312 22.0938 22.0938C24.0312 20.1562 25 17.7917 25 15C25 12.2083 24.0312 9.84375 22.0938 7.90625C20.1562 5.96875 17.7917 5 15 5C12.2083 5 9.84375 5.96875 7.90625 7.90625C5.96875 9.84375 5 12.2083 5 15C5 17.7917 5.96875 20.1562 7.90625 22.0938C9.84375 24.0312 12.2083 25 15 25Z" fill="#4E4E4E"/>
</svg>
